<svg fill="none" height="636" viewBox="0 0 576 636" width="576" xmlns="http://www.w3.org/2000/svg" xmlns:xlink="http://www.w3.org/1999/xlink"><clipPath id="a"><path d="m0 0h576v636h-576z"/></clipPath><mask id="b" height="636" maskUnits="userSpaceOnUse" width="576" x="0" y="0"><path d="m576 0h-576v636h576z" fill="#fff"/></mask><g clip-path="url(#a)"><g mask="url(#b)"><path d="m576 0h-576v636h576z" fill="#333"/><g fill="#abfd25"><path d="m576 373.16v-38h-38v38z"/><path d="m538 335v-38h-38v38z"/><path d="m576 297v-38h-38v38z"/><path d="m-.00000165 373.16.00000165-38h38v38z"/><path d="m38 335v-38h38v38z"/><path d="m-.00000165 297 .00000165-38h38v38z"/><path d="m-.00000165 111.16.00000165-37.9998h38v37.9998z"/><path d="m38 73.1602v-38h38v38z"/><path d="m76 35v-38h38v38z"/><path d="m316 111.16v-37.9998h38v37.9998z"/><path d="m354 73.1602v-38h38v38z"/><path d="m392 35v-38h38v38z"/><path d="m146 111.16v-37.9998h38v37.9998z"/><path d="m184 73.1602v-38h38v38z"/><path d="m222 35v-38h38v38z"/><path d="m462 111.16v-37.9998h38v37.9998z"/><path d="m500 73.1602v-38h38v38z"/><path d="m538 35v-38h38v38z"/><path d="m76 636v-38h38v38z"/><path d="m38 598v-38h38v38z"/><path d="m-.00000165 560 .00000165-38h38v38z"/><path d="m392 636v-38h38v38z"/><path d="m354 598v-38h38v38z"/><path d="m316 560v-38h38v38z"/><path d="m222 636v-38h38v38z"/><path d="m184 598v-38h38v38z"/><path d="m146 560v-38h38v38z"/><path d="m538 636v-38h38v38z"/><path d="m500 598v-38h38v38z"/><path d="m462 560v-38h38v38z"/></g><path d="m152.174 337.952c5.408 0 10.275.865 14.602 2.596s8.798 4.579 13.413 8.545l-7.464 8.87c-3.966-3.389-7.535-5.697-10.708-6.923-3.101-1.298-6.418-1.947-9.952-1.947-4.975 0-9.338 1.226-13.088 3.678-3.749 2.379-6.634 5.769-8.653 10.167-1.947 4.327-2.92 9.339-2.92 15.035 0 5.769 1.009 10.853 3.028 15.252s4.832 7.824 8.437 10.276c3.678 2.379 7.932 3.569 12.764 3.569 4.11 0 7.752-.793 10.925-2.38 3.172-1.658 6.922-4.362 11.249-8.112l7.68 8.653c-4.904 4.615-9.627 7.932-14.17 9.951-4.543 2.02-9.699 3.029-15.468 3.029-7.644 0-14.314-1.731-20.011-5.192-5.624-3.461-9.951-8.22-12.979-14.278-3.029-6.129-4.543-13.052-4.543-20.768 0-7.643 1.478-14.494 4.434-20.551 3.029-6.057 7.392-10.817 13.088-14.278 5.697-3.461 12.476-5.192 20.336-5.192zm39.245 1.731h12.764v65.873h36.452v10.924h-49.216zm70.586 11.898v38.94h38.94v-38.94h12.98v64.899h-12.98v-12.979h-38.94v12.979h-12.98v-64.899zm0 0v-12.98h38.94v12.98zm94.558-13.629c12.115 0 20.552 3.461 29.962 11.682l-7.463 8.87c-8.654-7.572-14.387-9.411-22.715-9.411-9.519 0-15.576 4.543-15.576 10.709 0 7.139 6.814 8.761 19.686 11.79 18.929 4.326 27.041 9.302 27.041 22.282 0 14.386-11.681 24.337-29.421 24.337-13.304 0-21.957-3.786-33.315-13.737l7.68-8.978c10.276 8.87 17.09 11.574 25.852 11.574 9.518 0 16.549-4.435 16.549-12.331 0-8.22-8.329-9.627-20.443-12.439-9.952-2.271-16.441-4.867-20.552-8.329-4.11-3.353-5.733-7.679-5.733-13.737 0-13.088 12.223-22.282 28.448-22.282zm91.907 1.731h12.872v76.797h-12.872v-34.721h-37.425v34.721h-12.764v-76.797h12.764v31.26h37.425z" fill="#fff"/><path d="m131.689 233.681v63.454h-15.863v-63.454zm0 79.318v-15.864h47.591v15.864zm0-79.318v-15.863h47.591v15.863zm47.591 63.454v-15.863h15.863v15.863zm0-47.59v-15.864h15.863v15.864zm44.972-15.864v63.454h-15.863v-63.454zm0 79.318v-15.864h47.591v15.864zm0-79.318v-15.863h47.591v15.863zm47.591 63.454v-63.454h15.864v63.454zm29.109 15.864v-95.181h63.454v15.863h-47.59v63.454h47.59v15.864zm63.454-15.864v-63.454h15.864v63.454zm29.109-77.995h64.38v13.219h-48.781v25.646h45.476v13.088h-45.476v28.686h50.103v13.22h-65.702z" fill="#fff"/></g></g></svg>